G04*
G04 #@! TF.GenerationSoftware,Altium Limited,Altium Designer,24.10.1 (45)*
G04*
G04 Layer_Physical_Order=2*
G04 Layer_Color=16711680*
%FSLAX44Y44*%
%MOMM*%
G71*
G04*
G04 #@! TF.SameCoordinates,5BAE0674-82A5-4AB9-AFD0-8D55292733AA*
G04*
G04*
G04 #@! TF.FilePolarity,Positive*
G04*
G01*
G75*
%ADD21R,1.5240X1.5240*%
%ADD22C,1.5240*%
G04:AMPARAMS|DCode=24|XSize=1.95mm|YSize=1.95mm|CornerRadius=0.4875mm|HoleSize=0mm|Usage=FLASHONLY|Rotation=270.000|XOffset=0mm|YOffset=0mm|HoleType=Round|Shape=RoundedRectangle|*
%AMROUNDEDRECTD24*
21,1,1.9500,0.9750,0,0,270.0*
21,1,0.9750,1.9500,0,0,270.0*
1,1,0.9750,-0.4875,-0.4875*
1,1,0.9750,-0.4875,0.4875*
1,1,0.9750,0.4875,0.4875*
1,1,0.9750,0.4875,-0.4875*
%
%ADD24ROUNDEDRECTD24*%
%ADD25C,1.9500*%
%ADD26C,1.0160*%
G36*
X397510Y0D02*
X0D01*
Y365760D01*
X397510D01*
Y0D01*
D02*
G37*
%LPC*%
G36*
X236220Y320040D02*
X215900D01*
Y299720D01*
X236220D01*
Y320040D01*
D02*
G37*
G36*
X201998D02*
X199322D01*
X196738Y319348D01*
X194422Y318010D01*
X192530Y316118D01*
X191192Y313802D01*
X190500Y311218D01*
Y308542D01*
X191192Y305958D01*
X192530Y303642D01*
X194422Y301750D01*
X196738Y300412D01*
X199322Y299720D01*
X201998D01*
X204582Y300412D01*
X206898Y301750D01*
X208790Y303642D01*
X210128Y305958D01*
X210820Y308542D01*
Y311218D01*
X210128Y313802D01*
X208790Y316118D01*
X206898Y318010D01*
X204582Y319348D01*
X201998Y320040D01*
D02*
G37*
G36*
X45475Y210074D02*
X35725D01*
X33789Y209819D01*
X31985Y209072D01*
X30437Y207883D01*
X29248Y206334D01*
X28501Y204531D01*
X28246Y202595D01*
Y192845D01*
X28501Y190909D01*
X29248Y189105D01*
X30437Y187557D01*
X31985Y186368D01*
X33789Y185621D01*
X35725Y185366D01*
X45475D01*
X47411Y185621D01*
X49215Y186368D01*
X50763Y187557D01*
X51952Y189105D01*
X52699Y190909D01*
X52954Y192845D01*
Y202595D01*
X52699Y204531D01*
X51952Y206334D01*
X50763Y207883D01*
X49215Y209072D01*
X47411Y209819D01*
X45475Y210074D01*
D02*
G37*
G36*
X361785Y160074D02*
X352035D01*
X350099Y159819D01*
X348296Y159072D01*
X346747Y157883D01*
X345558Y156334D01*
X344811Y154531D01*
X344556Y152595D01*
Y142845D01*
X344811Y140909D01*
X345558Y139106D01*
X346747Y137557D01*
X348296Y136368D01*
X350099Y135621D01*
X352035Y135366D01*
X361785D01*
X363721Y135621D01*
X365524Y136368D01*
X367073Y137557D01*
X368262Y139106D01*
X369009Y140909D01*
X369264Y142845D01*
Y152595D01*
X369009Y154531D01*
X368262Y156334D01*
X367073Y157883D01*
X365524Y159072D01*
X363721Y159819D01*
X361785Y160074D01*
D02*
G37*
G36*
X238828Y49530D02*
X236152D01*
X233568Y48838D01*
X231252Y47500D01*
X229360Y45608D01*
X228022Y43292D01*
X227330Y40708D01*
Y38032D01*
X228022Y35448D01*
X229360Y33132D01*
X231252Y31240D01*
X233568Y29902D01*
X236152Y29210D01*
X238828D01*
X241412Y29902D01*
X243728Y31240D01*
X245620Y33132D01*
X246958Y35448D01*
X247650Y38032D01*
Y40708D01*
X246958Y43292D01*
X245620Y45608D01*
X243728Y47500D01*
X241412Y48838D01*
X238828Y49530D01*
D02*
G37*
G36*
X213428D02*
X210752D01*
X208168Y48838D01*
X205852Y47500D01*
X203960Y45608D01*
X202622Y43292D01*
X201930Y40708D01*
Y38032D01*
X202622Y35448D01*
X203960Y33132D01*
X205852Y31240D01*
X208168Y29902D01*
X210752Y29210D01*
X213428D01*
X216012Y29902D01*
X218328Y31240D01*
X220220Y33132D01*
X221558Y35448D01*
X222250Y38032D01*
Y40708D01*
X221558Y43292D01*
X220220Y45608D01*
X218328Y47500D01*
X216012Y48838D01*
X213428Y49530D01*
D02*
G37*
G36*
X196850D02*
X176530D01*
Y29210D01*
X196850D01*
Y49530D01*
D02*
G37*
%LPD*%
D21*
X226060Y309880D02*
D03*
X186690Y39370D02*
D03*
D22*
X200660Y309880D02*
D03*
X175260D02*
D03*
X212090Y39370D02*
D03*
X237490D02*
D03*
D24*
X40600Y197720D02*
D03*
X356910Y147720D02*
D03*
D25*
X40600D02*
D03*
X356910Y197720D02*
D03*
D26*
X195187Y129540D02*
D03*
M02*
