G04*
G04 #@! TF.GenerationSoftware,Altium Limited,Altium Designer,24.10.1 (45)*
G04*
G04 Layer_Physical_Order=1*
G04 Layer_Color=255*
%FSLAX44Y44*%
%MOMM*%
G71*
G04*
G04 #@! TF.SameCoordinates,5BAE0674-82A5-4AB9-AFD0-8D55292733AA*
G04*
G04*
G04 #@! TF.FilePolarity,Positive*
G04*
G01*
G75*
%ADD12C,0.2540*%
%ADD14R,0.9121X0.8587*%
%ADD15R,1.1350X1.0621*%
%ADD16R,0.3048X0.7112*%
%ADD17R,1.1938X1.3970*%
%ADD18R,0.5000X0.5000*%
%ADD21R,1.5240X1.5240*%
%ADD22C,1.5240*%
G04:AMPARAMS|DCode=24|XSize=1.95mm|YSize=1.95mm|CornerRadius=0.4875mm|HoleSize=0mm|Usage=FLASHONLY|Rotation=270.000|XOffset=0mm|YOffset=0mm|HoleType=Round|Shape=RoundedRectangle|*
%AMROUNDEDRECTD24*
21,1,1.9500,0.9750,0,0,270.0*
21,1,0.9750,1.9500,0,0,270.0*
1,1,0.9750,-0.4875,-0.4875*
1,1,0.9750,-0.4875,0.4875*
1,1,0.9750,0.4875,0.4875*
1,1,0.9750,0.4875,-0.4875*
%
%ADD24ROUNDEDRECTD24*%
%ADD25C,1.9500*%
%ADD26C,1.0160*%
G36*
X172338Y247188D02*
X172524Y246380D01*
X171243Y245099D01*
X170401Y243839D01*
X170105Y242352D01*
Y230297D01*
X170401Y228810D01*
X171243Y227550D01*
X185420Y213373D01*
Y160316D01*
X174326D01*
Y148124D01*
X185420D01*
Y95250D01*
X0D01*
Y247650D01*
X172036D01*
X172338Y247188D01*
D02*
G37*
G36*
X397510Y95250D02*
X242570D01*
Y112799D01*
X243165D01*
Y116234D01*
X243240Y116609D01*
X243165Y116985D01*
Y128501D01*
X243127D01*
X242801Y129771D01*
X243840Y130810D01*
X229609Y145041D01*
Y159354D01*
X229313Y160841D01*
X228471Y162101D01*
X226239Y164333D01*
X224979Y165175D01*
X223492Y165471D01*
X212090D01*
Y185124D01*
X224454D01*
Y197316D01*
X212090D01*
Y247650D01*
X397510D01*
Y95250D01*
D02*
G37*
%LPC*%
G36*
X42218Y160010D02*
X38982D01*
X35856Y159172D01*
X33054Y157554D01*
X30766Y155266D01*
X29148Y152464D01*
X28310Y149338D01*
Y146102D01*
X29148Y142976D01*
X30766Y140174D01*
X33054Y137886D01*
X35856Y136267D01*
X38982Y135430D01*
X42218D01*
X45344Y136267D01*
X48146Y137886D01*
X50434Y140174D01*
X52052Y142976D01*
X52890Y146102D01*
Y149338D01*
X52052Y152464D01*
X50434Y155266D01*
X48146Y157554D01*
X45344Y159172D01*
X42218Y160010D01*
D02*
G37*
G36*
X358528Y210010D02*
X355292D01*
X352166Y209172D01*
X349364Y207554D01*
X347076Y205266D01*
X345458Y202464D01*
X344620Y199338D01*
Y196102D01*
X345458Y192976D01*
X347076Y190174D01*
X349364Y187886D01*
X352166Y186268D01*
X355292Y185430D01*
X358528D01*
X361654Y186268D01*
X364456Y187886D01*
X366744Y190174D01*
X368363Y192976D01*
X369200Y196102D01*
Y199338D01*
X368363Y202464D01*
X366744Y205266D01*
X364456Y207554D01*
X361654Y209172D01*
X358528Y210010D01*
D02*
G37*
%LPD*%
D12*
X222560Y104371D02*
X226483Y100448D01*
X212428Y110490D02*
X216924D01*
X222560Y104853D01*
X226483Y100448D02*
X226965D01*
X222560Y104371D02*
Y104853D01*
X209157Y113761D02*
X212428Y110490D01*
X196136Y153966D02*
X196390Y154220D01*
X196136Y130489D02*
Y153966D01*
X195187Y129540D02*
X196136Y130489D01*
X196390Y154220D02*
X202390D01*
X197587Y269977D02*
X202520D01*
X193419Y237869D02*
Y265809D01*
X202520Y269977D02*
X204470Y271927D01*
Y284480D01*
X193419Y265809D02*
X197587Y269977D01*
X190540Y234990D02*
X193419Y237869D01*
X196632Y44232D02*
X210658Y58258D01*
Y100330D01*
X186690Y39370D02*
X191552Y44232D01*
X196632D01*
X210293Y100330D02*
X210658D01*
X204077Y106546D02*
X210293Y100330D01*
X204077Y106546D02*
Y129643D01*
X208390Y133956D01*
Y154220D01*
X213724Y132106D02*
Y160207D01*
X209157Y127539D02*
X213724Y132106D01*
X209157Y113761D02*
Y127539D01*
X215103Y161586D02*
X223492D01*
X206714D02*
X215103D01*
X213724Y160207D02*
X215103Y161586D01*
X212090Y39370D02*
X236451Y63731D01*
X228736Y110490D02*
X233179D01*
X236451Y107219D01*
X218642Y120650D02*
X219007D01*
X225465Y113761D02*
X228736Y110490D01*
X235315Y120650D02*
X239355Y116609D01*
X236451Y63731D02*
Y107219D01*
X219007Y120650D02*
X225465Y114192D01*
Y113761D02*
Y114192D01*
X234950Y120650D02*
X235315D01*
X196390Y171910D02*
X206714Y161586D01*
X196390Y171910D02*
Y191220D01*
X225724Y142576D02*
X234950Y133350D01*
X223492Y161586D02*
X225724Y159354D01*
Y142576D02*
Y159354D01*
X196390Y191220D02*
Y221520D01*
X234950Y120650D02*
Y133350D01*
X175260Y309880D02*
X184150Y300990D01*
Y243920D02*
Y300990D01*
X217122Y300942D02*
X226060Y309880D01*
X217122Y259375D02*
Y300942D01*
X200660Y288290D02*
Y309880D01*
Y288290D02*
X204470Y284480D01*
X220390Y122398D02*
Y154220D01*
X218642Y120650D02*
X220390Y122398D01*
X204470Y259375D02*
X217122D01*
X185380Y234990D02*
X190540D01*
X184070Y243840D02*
X184150Y243920D01*
X173990Y230297D02*
X190390Y213896D01*
Y191220D02*
Y213896D01*
X178390Y154220D02*
X184390D01*
X184150Y233760D02*
X185380Y234990D01*
X175478Y243840D02*
X184070D01*
X173990Y242352D02*
X175478Y243840D01*
X173990Y230297D02*
Y242352D01*
X184150Y233760D02*
X196390Y221520D01*
X214390Y191220D02*
X220390D01*
X202644Y257548D02*
X204470Y259375D01*
X202390Y191220D02*
X202644Y191474D01*
Y257548D01*
D14*
X204470Y271927D02*
D03*
Y256393D02*
D03*
D15*
X234950Y120650D02*
D03*
X218642D02*
D03*
X226965Y100330D02*
D03*
X210658D02*
D03*
D16*
X202390Y154220D02*
D03*
X190390Y191220D02*
D03*
X202390D02*
D03*
X196390D02*
D03*
X208390Y154220D02*
D03*
X196390D02*
D03*
X178390Y191220D02*
D03*
X214390D02*
D03*
X220390D02*
D03*
Y154220D02*
D03*
X184390D02*
D03*
X178390D02*
D03*
D17*
X177890Y172720D02*
D03*
X220890D02*
D03*
D18*
X184150Y243760D02*
D03*
Y233760D02*
D03*
D21*
X226060Y309880D02*
D03*
X186690Y39370D02*
D03*
D22*
X200660Y309880D02*
D03*
X175260D02*
D03*
X212090Y39370D02*
D03*
X237490D02*
D03*
D24*
X40600Y197720D02*
D03*
X356910Y147720D02*
D03*
D25*
X40600D02*
D03*
X356910Y197720D02*
D03*
D26*
X195187Y129540D02*
D03*
M02*
