G04*
G04 #@! TF.GenerationSoftware,Altium Limited,Altium Designer,24.10.1 (45)*
G04*
G04 Layer_Color=8388736*
%FSLAX44Y44*%
%MOMM*%
G71*
G04*
G04 #@! TF.SameCoordinates,5BAE0674-82A5-4AB9-AFD0-8D55292733AA*
G04*
G04*
G04 #@! TF.FilePolarity,Negative*
G04*
G01*
G75*
%ADD14R,0.9121X0.8587*%
%ADD15R,1.1350X1.0621*%
%ADD16R,0.3048X0.7112*%
%ADD17R,1.1938X1.3970*%
%ADD18R,0.5000X0.5000*%
G04:AMPARAMS|DCode=19|XSize=2.1532mm|YSize=2.1532mm|CornerRadius=0.5891mm|HoleSize=0mm|Usage=FLASHONLY|Rotation=270.000|XOffset=0mm|YOffset=0mm|HoleType=Round|Shape=RoundedRectangle|*
%AMROUNDEDRECTD19*
21,1,2.1532,0.9750,0,0,270.0*
21,1,0.9750,2.1532,0,0,270.0*
1,1,1.1782,-0.4875,-0.4875*
1,1,1.1782,-0.4875,0.4875*
1,1,1.1782,0.4875,0.4875*
1,1,1.1782,0.4875,-0.4875*
%
%ADD19ROUNDEDRECTD19*%
%ADD20C,2.1532*%
%ADD21R,1.5240X1.5240*%
%ADD22C,1.5240*%
%ADD23C,1.2192*%
D14*
X204470Y271927D02*
D03*
Y256393D02*
D03*
D15*
X234950Y120650D02*
D03*
X218642D02*
D03*
X226965Y100330D02*
D03*
X210658D02*
D03*
D16*
X202390Y154220D02*
D03*
X190390Y191220D02*
D03*
X202390D02*
D03*
X196390D02*
D03*
X208390Y154220D02*
D03*
X196390D02*
D03*
X178390Y191220D02*
D03*
X214390D02*
D03*
X220390D02*
D03*
Y154220D02*
D03*
X184390D02*
D03*
X178390D02*
D03*
D17*
X177890Y172720D02*
D03*
X220890D02*
D03*
D18*
X184150Y243760D02*
D03*
Y233760D02*
D03*
D19*
X40600Y197720D02*
D03*
X356910Y147720D02*
D03*
D20*
X40600D02*
D03*
X356910Y197720D02*
D03*
D21*
X226060Y309880D02*
D03*
X186690Y39370D02*
D03*
D22*
X200660Y309880D02*
D03*
X175260D02*
D03*
X212090Y39370D02*
D03*
X237490D02*
D03*
D23*
X195187Y129540D02*
D03*
M02*
