G04*
G04 #@! TF.GenerationSoftware,Altium Limited,Altium Designer,24.10.1 (45)*
G04*
G04 Layer_Color=65535*
%FSLAX44Y44*%
%MOMM*%
G71*
G04*
G04 #@! TF.SameCoordinates,5BAE0674-82A5-4AB9-AFD0-8D55292733AA*
G04*
G04*
G04 #@! TF.FilePolarity,Positive*
G04*
G01*
G75*
%ADD10C,0.2000*%
%ADD11C,0.1524*%
%ADD12C,0.2540*%
%ADD13C,0.0762*%
D10*
X600Y222720D02*
X75600D01*
X600Y122720D02*
X75600D01*
Y222720D01*
X600Y122720D02*
Y222720D01*
X321910Y122720D02*
X396910D01*
X321910Y222720D02*
X396910D01*
X321910Y122720D02*
Y222720D01*
X396910Y122720D02*
Y222720D01*
X195909Y252099D02*
Y276221D01*
X213031Y252099D02*
Y276221D01*
X219296Y111150D02*
X234296D01*
X219296Y130150D02*
X234296D01*
X211311Y90830D02*
X226311D01*
X211311Y109830D02*
X226311D01*
X190957Y233456D02*
Y243957D01*
X177400Y233510D02*
Y244010D01*
D11*
X219710Y337820D02*
X226060Y325120D01*
X219710Y337820D02*
X232410D01*
X226060Y325120D02*
X232410Y337820D01*
X158750Y295910D02*
X242570D01*
Y323850D01*
X158750D02*
X242570D01*
X158750Y295910D02*
Y323850D01*
X186690Y24130D02*
X193040Y11430D01*
X180340D02*
X193040D01*
X180340D02*
X186690Y24130D01*
X170180Y53340D02*
X254000D01*
X170180Y25400D02*
Y53340D01*
Y25400D02*
X254000D01*
Y53340D01*
X226187Y151003D02*
Y162408D01*
Y183032D02*
Y194437D01*
X172593Y183032D02*
Y194437D01*
Y151003D02*
Y162408D01*
D12*
X11173Y247899D02*
X6094D01*
X8633D01*
Y235203D01*
X6094Y232664D01*
X3555D01*
X1016Y235203D01*
X16251Y232664D02*
X21329D01*
X18790D01*
Y247899D01*
X16251Y245360D01*
X332483Y247899D02*
X327404D01*
X329944D01*
Y235203D01*
X327404Y232664D01*
X324865D01*
X322326Y235203D01*
X347718Y232664D02*
X337561D01*
X347718Y242821D01*
Y245360D01*
X345179Y247899D01*
X340100D01*
X337561Y245360D01*
X181611Y72387D02*
X176532D01*
X179072D01*
Y59692D01*
X176532Y57153D01*
X173993D01*
X171454Y59692D01*
X194307Y57153D02*
Y72387D01*
X186689Y64770D01*
X196846D01*
X172721Y344168D02*
X167642D01*
X170182D01*
Y331472D01*
X167642Y328932D01*
X165103D01*
X162564Y331472D01*
X177799Y341628D02*
X180338Y344168D01*
X185417D01*
X187956Y341628D01*
Y339089D01*
X185417Y336550D01*
X182878D01*
X185417D01*
X187956Y334011D01*
Y331472D01*
X185417Y328932D01*
X180338D01*
X177799Y331472D01*
X245114Y111763D02*
Y126997D01*
X252732D01*
X255271Y124458D01*
Y119380D01*
X252732Y116841D01*
X245114D01*
X250193D02*
X255271Y111763D01*
X270506D02*
X260349D01*
X270506Y121919D01*
Y124458D01*
X267967Y126997D01*
X262888D01*
X260349Y124458D01*
X181613Y91442D02*
Y106678D01*
X189231D01*
X191770Y104138D01*
Y99060D01*
X189231Y96521D01*
X181613D01*
X186692D02*
X191770Y91442D01*
X196848D02*
X201927D01*
X199388D01*
Y106678D01*
X196848Y104138D01*
X229874Y256542D02*
Y271777D01*
X237492D01*
X240031Y269238D01*
Y264160D01*
X237492Y261621D01*
X229874D01*
X234953D02*
X240031Y256542D01*
X245109Y269238D02*
X247648Y271777D01*
X252727D01*
X255266Y269238D01*
Y266699D01*
X252727Y264160D01*
X250187D01*
X252727D01*
X255266Y261621D01*
Y259082D01*
X252727Y256542D01*
X247648D01*
X245109Y259082D01*
X111770Y119382D02*
Y134618D01*
X119388D01*
X121927Y132078D01*
Y127000D01*
X119388Y124461D01*
X111770D01*
X127005Y134618D02*
X132084D01*
X129544D01*
Y119382D01*
X127005D01*
X132084D01*
X139701D02*
Y134618D01*
X149858Y119382D01*
Y134618D01*
X154936Y119382D02*
Y129539D01*
X160015Y134618D01*
X165093Y129539D01*
Y119382D01*
Y127000D01*
X154936D01*
X170171Y119382D02*
X175250D01*
X172711D01*
Y134618D01*
X170171Y132078D01*
X153670Y264158D02*
X151131Y266698D01*
X146053D01*
X143513Y264158D01*
Y254002D01*
X146053Y251462D01*
X151131D01*
X153670Y254002D01*
X158748Y251462D02*
X163827D01*
X161288D01*
Y266698D01*
X158748Y264158D01*
D13*
X174160Y141139D02*
X182624Y149603D01*
Y141139D02*
X174160Y149603D01*
X178392Y141139D02*
Y149603D01*
X182624Y145371D02*
X174160D01*
M02*
